{
  "accessors": [
    {
      "bufferView": 2,
      "componentType": 5126,
      "count": 65532,
      "max": [
        13.31235122680664,
        10.759573936462402,
        15.079819679260254
      ],
      "min": [
        -15.039678573608398,
        -11.424766540527344,
        -0.1216278076171875
      ],
      "type": "VEC3"
    },
    {
      "bufferView": 2,
      "byteOffset": 786384,
      "componentType": 5126,
      "count": 65532,
      "max": [
        0.9999992847442627,
        0.9999386072158813,
        0.9999956488609314
      ],
      "min": [
        -0.9999728798866272,
        -0.9999557733535767,
        -0.9999854564666748
      ],
      "type": "VEC3"
    },
    {
      "bufferView": 1,
      "componentType": 5126,
      "count": 65532,
      "max": [
        0.999871015548706,
        0.9922919869422913
      ],
      "min": [
        0.00012199999764561653,
        0.5001220107078552
      ],
      "type": "VEC2"
    },
    {
      "bufferView": 0,
      "componentType": 5125,
      "count": 316293,
      "type": "SCALAR"
    },
    {
      "bufferView": 2,
      "byteOffset": 1572768,
      "componentType": 5126,
      "count": 65532,
      "max": [
        13.325016021728516,
        10.822525978088379,
        15.009476661682129
      ],
      "min": [
        -15.004650115966797,
        -11.430322647094727,
        -0.18808555603027344
      ],
      "type": "VEC3"
    },
    {
      "bufferView": 2,
      "byteOffset": 2359152,
      "componentType": 5126,
      "count": 65532,
      "max": [
        0.9999992847442627,
        0.9999576807022095,
        0.9999902248382568
      ],
      "min": [
        -0.9996263980865479,
        -0.9999796152114868,
        -0.999952495098114
      ],
      "type": "VEC3"
    },
    {
      "bufferView": 1,
      "byteOffset": 524256,
      "componentType": 5126,
      "count": 65532,
      "max": [
        0.4998779892921448,
        0.9998779892921448
      ],
      "min": [
        0.00012199999764561653,
        0.5001220107078552
      ],
      "type": "VEC2"
    },
    {
      "bufferView": 0,
      "byteOffset": 1265172,
      "componentType": 5125,
      "count": 257355,
      "type": "SCALAR"
    },
    {
      "bufferView": 2,
      "byteOffset": 3145536,
      "componentType": 5126,
      "count": 8466,
      "max": [
        11.575859069824219,
        10.195387840270996,
        13.970563888549805
      ],
      "min": [
        -14.674842834472656,
        -10.951532363891602,
        0.18034744262695313
      ],
      "type": "VEC3"
    },
    {
      "bufferView": 2,
      "byteOffset": 3247128,
      "componentType": 5126,
      "count": 8466,
      "max": [
        0.999411940574646,
        0.9990475177764893,
        0.9999861121177673
      ],
      "min": [
        -0.9998606443405151,
        -0.9817517995834351,
        -0.9999713897705078
      ],
      "type": "VEC3"
    },
    {
      "bufferView": 1,
      "byteOffset": 1048512,
      "componentType": 5126,
      "count": 8466,
      "max": [
        0.9623730182647705,
        0.9862430095672607
      ],
      "min": [
        0.00012199999764561653,
        0.5001220107078552
      ],
      "type": "VEC2"
    },
    {
      "bufferView": 0,
      "byteOffset": 2294592,
      "componentType": 5125,
      "count": 26352,
      "type": "SCALAR"
    }
  ],
  "asset": {
    "extras": {
      "author": "EDUROCK – EDUCATIONAL VIRTUAL ROCK COLLECTION (https://sketchfab.com/EDUROCK_AALTO)",
      "license": "CC-BY-4.0 (http://creativecommons.org/licenses/by/4.0/)",
      "source": "https://sketchfab.com/3d-models/calcite-f842f5c568af4b808ad309ba3a8db538",
      "title": "Calcite"
    },
    "generator": "Sketchfab-12.68.0",
    "version": "2.0"
  },
  "bufferViews": [
    {
      "buffer": 0,
      "byteLength": 2400000,
      "name": "floatBufferViews",
      "target": 34963
    },
    {
      "buffer": 0,
      "byteLength": 1116240,
      "byteOffset": 2400000,
      "byteStride": 8,
      "name": "floatBufferViews",
      "target": 34962
    },
    {
      "buffer": 0,
      "byteLength": 3348720,
      "byteOffset": 3516240,
      "byteStride": 12,
      "name": "floatBufferViews",
      "target": 34962
    }
  ],
  "buffers": [
    {
      "byteLength": 6864960,
      "uri": "scene.bin"
    }
  ],
  "extensionsUsed": [
    "KHR_materials_unlit"
  ],
  "images": [
    {
      "uri": "textures/model_Material_u1_v1_baseColor.jpeg"
    }
  ],
  "materials": [
    {
      "doubleSided": true,
      "extensions": {
        "KHR_materials_unlit": {}
      },
      "name": "model_Material_u1_v1",
      "pbrMetallicRoughness": {
        "baseColorTexture": {
          "index": 0
        },
        "metallicFactor": 0.0
      }
    }
  ],
  "meshes": [
    {
      "name": "Object_0",
      "primitives": [
        {
          "attributes": {
            "NORMAL": 1,
            "POSITION": 0,
            "TEXCOORD_0": 2
          },
          "indices": 3,
          "material": 0,
          "mode": 4
        }
      ]
    },
    {
      "name": "Object_1",
      "primitives": [
        {
          "attributes": {
            "NORMAL": 5,
            "POSITION": 4,
            "TEXCOORD_0": 6
          },
          "indices": 7,
          "material": 0,
          "mode": 4
        }
      ]
    },
    {
      "name": "Object_2",
      "primitives": [
        {
          "attributes": {
            "NORMAL": 9,
            "POSITION": 8,
            "TEXCOORD_0": 10
          },
          "indices": 11,
          "material": 0,
          "mode": 4
        }
      ]
    }
  ],
  "nodes": [
    {
      "children": [
        1
      ],
      "matrix": [
        0.009999999776482582,
        0.0,
        0.0,
        0.0,
        0.0,
        2.2204459996194763e-18,
        -0.009999999776482582,
        0.0,
        0.0,
        0.009999999776482582,
        2.2204459996194763e-18,
        0.0,
        0.0,
        0.0,
        0.0,
        1.0
      ],
      "name": "Sketchfab_model"
    },
    {
      "children": [
        2,
        3,
        4
      ],
      "name": "model.obj.cleaner.materialmerger.gles"
    },
    {
      "mesh": 0,
      "name": "Object_2"
    },
    {
      "mesh": 1,
      "name": "Object_3"
    },
    {
      "mesh": 2,
      "name": "Object_4"
    }
  ],
  "samplers": [
    {
      "magFilter": 9729,
      "minFilter": 9987,
      "wrapS": 10497,
      "wrapT": 10497
    }
  ],
  "scene": 0,
  "scenes": [
    {
      "name": "Sketchfab_Scene",
      "nodes": [
        0
      ]
    }
  ],
  "textures": [
    {
      "sampler": 0,
      "source": 0
    }
  ]
}
