{
  "accessors": [
    {
      "bufferView": 2,
      "componentType": 5126,
      "count": 6067,
      "max": [
        0.6647460460662842,
        0.6652068495750427,
        0.08519874513149261
      ],
      "min": [
        -0.5002509355545044,
        0.030638236552476883,
        -0.5576592683792114
      ],
      "type": "VEC3"
    },
    {
      "bufferView": 2,
      "byteOffset": 72804,
      "componentType": 5126,
      "count": 6067,
      "max": [
        0.9988495111465454,
        0.9999067187309265,
        0.9999738335609436
      ],
      "min": [
        -0.9999584555625916,
        -0.7766768932342529,
        -0.9999544024467468
      ],
      "type": "VEC3"
    },
    {
      "bufferView": 1,
      "componentType": 5126,
      "count": 6067,
      "max": [
        0.99997878074646,
        0.6557149887084961
      ],
      "min": [
        9.471833618590608e-05,
        6.350874900817871e-05
      ],
      "type": "VEC2"
    },
    {
      "bufferView": 0,
      "componentType": 5125,
      "count": 34995,
      "type": "SCALAR"
    },
    {
      "bufferView": 2,
      "byteOffset": 145608,
      "componentType": 5126,
      "count": 5644,
      "max": [
        -0.12652532756328583,
        0.3701249063014984,
        0.4923299252986908
      ],
      "min": [
        -0.8067301511764526,
        -0.7350943684577942,
        -0.35752072930336
      ],
      "type": "VEC3"
    },
    {
      "bufferView": 2,
      "byteOffset": 213336,
      "componentType": 5126,
      "count": 5644,
      "max": [
        0.897131085395813,
        0.9931778907775879,
        0.999934196472168
      ],
      "min": [
        -0.9999627470970154,
        -0.9991657137870789,
        -0.9980587363243103
      ],
      "type": "VEC3"
    },
    {
      "bufferView": 1,
      "byteOffset": 48536,
      "componentType": 5126,
      "count": 5644,
      "max": [
        0.9999949932098389,
        0.5314610004425049
      ],
      "min": [
        4.947185516357422e-06,
        7.036328315734863e-05
      ],
      "type": "VEC2"
    },
    {
      "bufferView": 0,
      "byteOffset": 139980,
      "componentType": 5125,
      "count": 32988,
      "type": "SCALAR"
    },
    {
      "bufferView": 2,
      "byteOffset": 281064,
      "componentType": 5126,
      "count": 9026,
      "max": [
        0.890072226524353,
        0.4060065448284149,
        0.5199793577194214
      ],
      "min": [
        -0.6442685127258301,
        -0.5297762155532837,
        -0.2178903967142105
      ],
      "type": "VEC3"
    },
    {
      "bufferView": 2,
      "byteOffset": 389376,
      "componentType": 5126,
      "count": 9026,
      "max": [
        0.9999653100967407,
        0.9998816847801208,
        0.9999135732650757
      ],
      "min": [
        -0.9999760985374451,
        -0.9951307773590088,
        -0.9832748174667358
      ],
      "type": "VEC3"
    },
    {
      "bufferView": 1,
      "byteOffset": 93688,
      "componentType": 5126,
      "count": 9026,
      "max": [
        0.6207023859024048,
        0.9999759793281555
      ],
      "min": [
        1.1920928955078125e-05,
        2.4080276489257813e-05
      ],
      "type": "VEC2"
    },
    {
      "bufferView": 0,
      "byteOffset": 271932,
      "componentType": 5125,
      "count": 52503,
      "type": "SCALAR"
    },
    {
      "bufferView": 2,
      "byteOffset": 497688,
      "componentType": 5126,
      "count": 10142,
      "max": [
        0.8901644945144653,
        0.36211344599723816,
        0.49996981024742126
      ],
      "min": [
        -0.6570674180984497,
        -0.7011629939079285,
        -0.5230876207351685
      ],
      "type": "VEC3"
    },
    {
      "bufferView": 2,
      "byteOffset": 619392,
      "componentType": 5126,
      "count": 10142,
      "max": [
        0.9989331960678101,
        0.8821147084236145,
        0.9983785152435303
      ],
      "min": [
        -0.950661301612854,
        -0.9994171857833862,
        -0.9976643323898315
      ],
      "type": "VEC3"
    },
    {
      "bufferView": 1,
      "byteOffset": 165896,
      "componentType": 5126,
      "count": 10142,
      "max": [
        0.9999793767929077,
        0.6629122495651245
      ],
      "min": [
        2.0682811737060547e-05,
        7.894635200500488e-05
      ],
      "type": "VEC2"
    },
    {
      "bufferView": 0,
      "byteOffset": 481944,
      "componentType": 5125,
      "count": 59514,
      "type": "SCALAR"
    }
  ],
  "asset": {
    "extras": {
      "author": "Geolab Laboratorio Virtual 3D (https://sketchfab.com/geolab-ule)",
      "license": "CC-BY-4.0 (http://creativecommons.org/licenses/by/4.0/)",
      "source": "https://sketchfab.com/3d-models/fluorita-a320593bf4fa46b9bbbce3fa9f71ba0a",
      "title": "Fluorita"
    },
    "generator": "Sketchfab-15.23.0",
    "version": "2.0"
  },
  "bufferViews": [
    {
      "buffer": 0,
      "byteLength": 720000,
      "name": "floatBufferViews",
      "target": 34963
    },
    {
      "buffer": 0,
      "byteLength": 247032,
      "byteOffset": 720000,
      "byteStride": 8,
      "name": "floatBufferViews",
      "target": 34962
    },
    {
      "buffer": 0,
      "byteLength": 741096,
      "byteOffset": 967032,
      "byteStride": 12,
      "name": "floatBufferViews",
      "target": 34962
    }
  ],
  "buffers": [
    {
      "byteLength": 1708128,
      "uri": "scene.bin"
    }
  ],
  "extensionsUsed": [
    "KHR_materials_unlit"
  ],
  "images": [
    {
      "uri": "textures/material3_baseColor.jpeg"
    },
    {
      "uri": "textures/material2_baseColor.jpeg"
    },
    {
      "uri": "textures/material0_baseColor.jpeg"
    },
    {
      "uri": "textures/material1_baseColor.jpeg"
    }
  ],
  "materials": [
    {
      "doubleSided": true,
      "extensions": {
        "KHR_materials_unlit": {}
      },
      "name": "material3",
      "pbrMetallicRoughness": {
        "baseColorTexture": {
          "index": 0
        },
        "metallicFactor": 0.0
      }
    },
    {
      "doubleSided": true,
      "extensions": {
        "KHR_materials_unlit": {}
      },
      "name": "material2",
      "pbrMetallicRoughness": {
        "baseColorTexture": {
          "index": 1
        },
        "metallicFactor": 0.0
      }
    },
    {
      "doubleSided": true,
      "extensions": {
        "KHR_materials_unlit": {}
      },
      "name": "material0",
      "pbrMetallicRoughness": {
        "baseColorTexture": {
          "index": 2
        },
        "metallicFactor": 0.0
      }
    },
    {
      "doubleSided": true,
      "extensions": {
        "KHR_materials_unlit": {}
      },
      "name": "material1",
      "pbrMetallicRoughness": {
        "baseColorTexture": {
          "index": 3
        },
        "metallicFactor": 0.0
      }
    }
  ],
  "meshes": [
    {
      "name": "Model_material3_0",
      "primitives": [
        {
          "attributes": {
            "NORMAL": 1,
            "POSITION": 0,
            "TEXCOORD_0": 2
          },
          "indices": 3,
          "material": 0,
          "mode": 4
        }
      ]
    },
    {
      "name": "Model_material2_0",
      "primitives": [
        {
          "attributes": {
            "NORMAL": 5,
            "POSITION": 4,
            "TEXCOORD_0": 6
          },
          "indices": 7,
          "material": 1,
          "mode": 4
        }
      ]
    },
    {
      "name": "Model_material0_0",
      "primitives": [
        {
          "attributes": {
            "NORMAL": 9,
            "POSITION": 8,
            "TEXCOORD_0": 10
          },
          "indices": 11,
          "material": 2,
          "mode": 4
        }
      ]
    },
    {
      "name": "Model_material1_0",
      "primitives": [
        {
          "attributes": {
            "NORMAL": 13,
            "POSITION": 12,
            "TEXCOORD_0": 14
          },
          "indices": 15,
          "material": 3,
          "mode": 4
        }
      ]
    }
  ],
  "nodes": [
    {
      "children": [
        1
      ],
      "matrix": [
        1.0,
        0.0,
        0.0,
        0.0,
        0.0,
        2.220446049250313e-16,
        -1.0,
        0.0,
        0.0,
        1.0,
        2.220446049250313e-16,
        0.0,
        0.0,
        0.0,
        0.0,
        1.0
      ],
      "name": "Sketchfab_model"
    },
    {
      "children": [
        2
      ],
      "matrix": [
        1.0,
        0.0,
        0.0,
        0.0,
        0.0,
        -1.0,
        0.0,
        0.0,
        0.0,
        0.0,
        -1.0,
        0.0,
        0.0,
        0.0,
        0.0,
        1.0
      ],
      "name": "model.fbx"
    },
    {
      "children": [
        3
      ],
      "name": "RootNode"
    },
    {
      "children": [
        4,
        5,
        6,
        7
      ],
      "name": "Model"
    },
    {
      "mesh": 0,
      "name": "Model_material3_0"
    },
    {
      "mesh": 1,
      "name": "Model_material2_0"
    },
    {
      "mesh": 2,
      "name": "Model_material0_0"
    },
    {
      "mesh": 3,
      "name": "Model_material1_0"
    }
  ],
  "samplers": [
    {
      "magFilter": 9729,
      "minFilter": 9987,
      "wrapS": 10497,
      "wrapT": 10497
    }
  ],
  "scene": 0,
  "scenes": [
    {
      "name": "Sketchfab_Scene",
      "nodes": [
        0
      ]
    }
  ],
  "textures": [
    {
      "sampler": 0,
      "source": 0
    },
    {
      "sampler": 0,
      "source": 1
    },
    {
      "sampler": 0,
      "source": 2
    },
    {
      "sampler": 0,
      "source": 3
    }
  ]
}
