{
  "accessors": [
    {
      "bufferView": 2,
      "componentType": 5126,
      "count": 65532,
      "max": [
        665.3012084960938,
        -12.565401077270508,
        168.9942169189453
      ],
      "min": [
        381.7777099609375,
        -246.29931640625,
        -2.2235379219055176
      ],
      "type": "VEC3"
    },
    {
      "bufferView": 2,
      "byteOffset": 786384,
      "componentType": 5126,
      "count": 65532,
      "max": [
        0.9999942183494568,
        0.9996851086616516,
        0.9999927878379822
      ],
      "min": [
        -0.9999958872795105,
        -0.9998984932899475,
        -0.9999967813491821
      ],
      "type": "VEC3"
    },
    {
      "bufferView": 3,
      "componentType": 5126,
      "count": 65532,
      "max": [
        0.999997615814209,
        0.9999977350234985,
        0.9999868273735046,
        1.0
      ],
      "min": [
        -0.9999987483024597,
        -0.9999987483024597,
        -0.9994614720344543,
        -1.0
      ],
      "type": "VEC4"
    },
    {
      "bufferView": 1,
      "componentType": 5126,
      "count": 65532,
      "max": [
        0.9979029893875122,
        0.9929270148277283
      ],
      "min": [
        0.0020000000949949026,
        0.0020000000949949026
      ],
      "type": "VEC2"
    },
    {
      "bufferView": 0,
      "componentType": 5125,
      "count": 357744,
      "type": "SCALAR"
    },
    {
      "bufferView": 2,
      "byteOffset": 1572768,
      "componentType": 5126,
      "count": 54603,
      "max": [
        672.083984375,
        15.586098670959473,
        180.47959899902344
      ],
      "min": [
        384.1759948730469,
        -192.14039611816406,
        -10.945301055908203
      ],
      "type": "VEC3"
    },
    {
      "bufferView": 2,
      "byteOffset": 2228004,
      "componentType": 5126,
      "count": 54603,
      "max": [
        0.9999868869781494,
        0.9995889067649841,
        0.9999641180038452
      ],
      "min": [
        -0.9995356202125549,
        -0.9989476203918457,
        -0.9999929070472717
      ],
      "type": "VEC3"
    },
    {
      "bufferView": 3,
      "byteOffset": 1048512,
      "componentType": 5126,
      "count": 54603,
      "max": [
        0.9999780654907227,
        0.9999536275863647,
        0.9998650550842285,
        1.0
      ],
      "min": [
        -0.9999992847442627,
        -0.9999911189079285,
        -0.9999082088470459,
        -1.0
      ],
      "type": "VEC4"
    },
    {
      "bufferView": 1,
      "byteOffset": 524256,
      "componentType": 5126,
      "count": 54603,
      "max": [
        0.9980000257492065,
        0.9713010191917419
      ],
      "min": [
        0.0020000000949949026,
        0.0020000000949949026
      ],
      "type": "VEC2"
    },
    {
      "bufferView": 0,
      "byteOffset": 1430976,
      "componentType": 5125,
      "count": 296226,
      "type": "SCALAR"
    }
  ],
  "asset": {
    "extras": {
      "author": "Virtual Museums of Małopolska (https://sketchfab.com/WirtualneMuzeaMalopolski)",
      "license": "CC0-1.0 (http://creativecommons.org/publicdomain/zero/1.0/)",
      "source": "https://sketchfab.com/3d-models/halite-crystals-4f4a474678f845f79cb0db63f08306fb",
      "title": "Halite crystals"
    },
    "generator": "Sketchfab-12.68.0",
    "version": "2.0"
  },
  "bufferViews": [
    {
      "buffer": 0,
      "byteLength": 2615880,
      "name": "floatBufferViews",
      "target": 34963
    },
    {
      "buffer": 0,
      "byteLength": 961080,
      "byteOffset": 2615880,
      "byteStride": 8,
      "name": "floatBufferViews",
      "target": 34962
    },
    {
      "buffer": 0,
      "byteLength": 2883240,
      "byteOffset": 3576960,
      "byteStride": 12,
      "name": "floatBufferViews",
      "target": 34962
    },
    {
      "buffer": 0,
      "byteLength": 1922160,
      "byteOffset": 6460200,
      "byteStride": 16,
      "name": "floatBufferViews",
      "target": 34962
    }
  ],
  "buffers": [
    {
      "byteLength": 8382360,
      "uri": "scene.bin"
    }
  ],
  "images": [
    {
      "uri": "textures/material_0_baseColor.jpeg"
    },
    {
      "uri": "textures/material_0_normal.jpeg"
    }
  ],
  "materials": [
    {
      "doubleSided": true,
      "name": "material_0",
      "normalTexture": {
        "index": 1
      },
      "pbrMetallicRoughness": {
        "baseColorTexture": {
          "index": 0
        },
        "metallicFactor": 0.0,
        "roughnessFactor": 0.6
      }
    }
  ],
  "meshes": [
    {
      "name": "Object_0",
      "primitives": [
        {
          "attributes": {
            "NORMAL": 1,
            "POSITION": 0,
            "TANGENT": 2,
            "TEXCOORD_0": 3
          },
          "indices": 4,
          "material": 0,
          "mode": 4
        }
      ]
    },
    {
      "name": "Object_1",
      "primitives": [
        {
          "attributes": {
            "NORMAL": 6,
            "POSITION": 5,
            "TANGENT": 7,
            "TEXCOORD_0": 8
          },
          "indices": 9,
          "material": 0,
          "mode": 4
        }
      ]
    }
  ],
  "nodes": [
    {
      "children": [
        1
      ],
      "matrix": [
        1.0,
        0.0,
        0.0,
        0.0,
        0.0,
        2.220446049250313e-16,
        -1.0,
        0.0,
        0.0,
        1.0,
        2.220446049250313e-16,
        0.0,
        0.0,
        0.0,
        0.0,
        1.0
      ],
      "name": "Sketchfab_model"
    },
    {
      "children": [
        2,
        3
      ],
      "name": "MZKW_III_74_3_M_Krysztaly_halitu.obj.cleaner.gles"
    },
    {
      "mesh": 0,
      "name": "Object_2"
    },
    {
      "mesh": 1,
      "name": "Object_3"
    }
  ],
  "samplers": [
    {
      "magFilter": 9729,
      "minFilter": 9987,
      "wrapS": 10497,
      "wrapT": 10497
    }
  ],
  "scene": 0,
  "scenes": [
    {
      "name": "Sketchfab_Scene",
      "nodes": [
        0
      ]
    }
  ],
  "textures": [
    {
      "sampler": 0,
      "source": 0
    },
    {
      "sampler": 0,
      "source": 1
    }
  ]
}
